<!DOCTYPE svg PUBLIC "-//W3C//DTD SVG 1.1//EN" "http://www.w3.org/Graphics/SVG/1.1/DTD/svg11.dtd">
<!-- Uploaded to: SVG Repo, www.svgrepo.com, Transformed by: SVG Repo Mixer Tools -->
<svg fill="#ffffff" xmlns="http://www.w3.org/2000/svg" width="800px" height="800px" viewBox="-20 -20 140.00 140.00" xml:space="preserve" stroke="#ffffff">
<g id="SVGRepo_bgCarrier" stroke-width="0">
<rect x="-20" y="-20" width="140.00" height="140.00" rx="42" fill="#a8aaf0" strokewidth="0"/>
</g>
<g id="SVGRepo_tracerCarrier" stroke-linecap="round" stroke-linejoin="round"/>
<g id="SVGRepo_iconCarrier"> <g> <g> <path d="M57,44h-6h-6c-3.3,0-6,2.7-6,6v9c0,1.1,0.5,2.1,1.2,2.8c0.7,0.7,1.7,1.2,2.8,1.2v9c0,3.3,2.7,6,6,6h2h2 c3.3,0,6-2.7,6-6v-9c1.1,0,2.1-0.4,2.8-1.2c0.7-0.7,1.2-1.7,1.2-2.8v-9C63,46.7,60.3,44,57,44z"/> </g> <g> <circle cx="51" cy="33" r="7"/> </g> <g> <path d="M36.6,66.7c-0.2-0.2-0.5-0.4-0.7-0.6c-1.9-2-3-4.5-3-7.1v-9c0-3.2,1.3-6.2,3.4-8.3c0.6-0.6,0.1-1.7-0.7-1.7 c-1.7,0-3.6,0-3.6,0h-6c-3.3,0-6,2.7-6,6v9c0,1.1,0.5,2.1,1.2,2.8c0.7,0.7,1.7,1.2,2.8,1.2v9c0,3.3,2.7,6,6,6h2h2 c0.9,0,1.7-0.2,2.4-0.5c0.4-0.2,0.6-0.5,0.6-0.9c0-1.2,0-4,0-5.1C37,67.2,36.9,66.9,36.6,66.7z"/> </g> <g> <circle cx="32" cy="29" r="7"/> </g> <g> <path d="M76,40h-6c0,0-1.9,0-3.6,0c-0.9,0-1.3,1-0.7,1.7c2.1,2.2,3.4,5.1,3.4,8.3v9c0,2.6-1,5.1-3,7.1 c-0.2,0.2-0.4,0.4-0.7,0.6c-0.2,0.2-0.4,0.5-0.4,0.8c0,1.1,0,3.8,0,5.1c0,0.4,0.2,0.8,0.6,0.9c0.7,0.3,1.5,0.5,2.4,0.5h2h2 c3.3,0,6-2.7,6-6v-9c1.1,0,2.1-0.4,2.8-1.2c0.7-0.7,1.2-1.7,1.2-2.8v-9C82,42.7,79.3,40,76,40z"/> </g> <g> <circle cx="70" cy="29" r="7"/> </g> </g> </g>
</svg>