<!DOCTYPE svg PUBLIC "-//W3C//DTD SVG 1.1//EN" "http://www.w3.org/Graphics/SVG/1.1/DTD/svg11.dtd">
<!-- Uploaded to: SVG Repo, www.svgrepo.com, Transformed by: SVG Repo Mixer Tools -->
<svg fill="#ffffff" height="800px" width="800px" version="1.1" id="Layer_1" xmlns="http://www.w3.org/2000/svg" xmlns:xlink="http://www.w3.org/1999/xlink" viewBox="-46.49 -46.49 557.89 557.89" xml:space="preserve" stroke="#ffffff">
<g id="SVGRepo_bgCarrier" stroke-width="0">
<rect x="-46.49" y="-46.49" width="557.89" height="557.89" rx="83.68350000000001" fill="#f25f5f" strokewidth="0"/>
</g>
<g id="SVGRepo_tracerCarrier" stroke-linecap="round" stroke-linejoin="round"/>
<g id="SVGRepo_iconCarrier"> <g> <g> <path d="M445.356,351.389L334.16,240.193c25.337-61.165,14.752-136.809-37.73-189.29c-67.865-67.867-177.714-67.875-245.588,0 c-67.709,67.709-67.709,177.879,0,245.588c52.176,52.175,127.726,63.233,189.29,37.729l111.195,111.196 c25.981,25.983,68.042,25.989,94.028,0C471.34,419.433,471.343,377.375,445.356,351.389z M116.821,230.512 c5.82,5.82,5.82,15.257,0,21.077c-5.819,5.819-15.256,5.822-21.077,0c-42.949-42.949-42.949-112.834,0-155.784 c5.82-5.82,15.257-5.82,21.077,0c5.82,5.82,5.82,15.257,0,21.077C85.494,148.21,85.494,199.184,116.821,230.512z"/> </g> </g> </g>
</svg>