<!DOCTYPE svg PUBLIC "-//W3C//DTD SVG 1.1//EN" "http://www.w3.org/Graphics/SVG/1.1/DTD/svg11.dtd">
<!-- Uploaded to: SVG Repo, www.svgrepo.com, Transformed by: SVG Repo Mixer Tools -->
<svg width="800px" height="800px" viewBox="-512 -512 2048.00 2048.00" class="icon" version="1.1" xmlns="http://www.w3.org/2000/svg" fill="#000000">
<g id="SVGRepo_bgCarrier" stroke-width="0">
<rect x="-512" y="-512" width="2048.00" height="2048.00" rx="1024" fill="#ffffff" strokewidth="0"/>
</g>
<g id="SVGRepo_tracerCarrier" stroke-linecap="round" stroke-linejoin="round"/>
<g id="SVGRepo_iconCarrier">
<path d="M789.333333 832H234.666667l-128 128V234.666667c0-70.4 57.6-128 128-128h554.666666c70.4 0 128 57.6 128 128v469.333333c0 70.4-57.6 128-128 128z" fill="#6CB4EE"/>
<path d="M512 469.333333m-64 0a64 64 0 1 0 128 0 64 64 0 1 0-128 0Z" fill="#FFFFFF"/>
<path d="M725.333333 469.333333m-64 0a64 64 0 1 0 128 0 64 64 0 1 0-128 0Z" fill="#FFFFFF"/>
<path d="M298.666667 469.333333m-64 0a64 64 0 1 0 128 0 64 64 0 1 0-128 0Z" fill="#FFFFFF"/>
</g>
</svg>