<!DOCTYPE svg PUBLIC "-//W3C//DTD SVG 1.1//EN" "http://www.w3.org/Graphics/SVG/1.1/DTD/svg11.dtd">
<!-- Uploaded to: SVG Repo, www.svgrepo.com, Transformed by: SVG Repo Mixer Tools -->
<svg fill="#ffffff" height="800px" width="800px" version="1.1" id="Layer_1" xmlns="http://www.w3.org/2000/svg" xmlns:xlink="http://www.w3.org/1999/xlink" viewBox="-227.5 -227.5 910.00 910.00" xml:space="preserve" stroke="#ffffff">
<g id="SVGRepo_bgCarrier" stroke-width="0">
<rect x="-227.5" y="-227.5" width="910.00" height="910.00" rx="273" fill="#90CAF9" strokewidth="0"/>
</g>
<g id="SVGRepo_tracerCarrier" stroke-linecap="round" stroke-linejoin="round"/>
<g id="SVGRepo_iconCarrier"> <g> <g> <path d="M388.367,66.634C345.398,23.665,288.268,0.001,227.5,0.001S109.603,23.665,66.633,66.634 C23.664,109.603,0,166.733,0,227.501c0,60.767,23.664,117.898,66.633,160.867c42.97,42.969,100.1,66.633,160.867,66.633 c60.767,0,117.898-23.664,160.867-66.633c42.97-42.969,66.634-100.1,66.634-160.867 C455.001,166.733,431.337,109.603,388.367,66.634z M227.5,85.587c36.514,0,64.635,35.294,64.635,77.036 c0,41.75-28.128,77.036-64.635,77.036c-36.522,0-64.635-35.304-64.635-77.036C162.865,120.861,191.001,85.587,227.5,85.587z M305.883,372.467c-20.929,7.706-48.766,11.95-78.383,11.95s-57.454-4.244-78.383-11.95c-35.614-13.113-43.09-32.879-43.09-47.153 c0-39.06,18.536-73.867,47.269-96.104c17.824,25.432,44.446,40.448,74.204,40.448c30.118,0,56.618-15.351,74.203-40.448 c28.733,22.236,47.269,57.044,47.269,96.104C348.973,339.587,341.497,359.353,305.883,372.467z"/> </g> </g> </g>
</svg>