<!DOCTYPE svg PUBLIC "-//W3C//DTD SVG 1.1//EN" "http://www.w3.org/Graphics/SVG/1.1/DTD/svg11.dtd">
<!-- Uploaded to: SVG Repo, www.svgrepo.com, Transformed by: SVG Repo Mixer Tools -->
<svg height="800px" width="800px" version="1.1" id="Layer_1" xmlns="http://www.w3.org/2000/svg" xmlns:xlink="http://www.w3.org/1999/xlink" viewBox="-153.6 -153.6 819.20 819.20" xml:space="preserve" fill="#000000">
<g id="SVGRepo_bgCarrier" stroke-width="0" transform="translate(0,0), scale(1)">
<rect x="-153.6" y="-153.6" width="819.20" height="819.20" rx="409.6" fill="#3969a7" strokewidth="0"/>
</g>
<g id="SVGRepo_tracerCarrier" stroke-linecap="round" stroke-linejoin="round"/>
<g id="SVGRepo_iconCarrier"> <path style="fill:#EFC27B;" d="M143.466,112.532c0,62.052,50.483,112.532,112.534,112.532s112.534-50.481,112.534-112.532 S318.052,0,256,0S143.466,50.481,143.466,112.532z"/> <path style="fill:#74ade2;" d="M76.665,512h358.669c14.856,0,26.9-12.044,26.9-26.9c0-113.718-92.517-206.235-206.235-206.235 S49.765,371.382,49.765,485.1C49.765,499.956,61.809,512,76.665,512z"/> <path style="fill:#ECB45C;" d="M143.466,112.532c0,62.052,50.483,112.532,112.534,112.532V0 C193.948,0,143.466,50.481,143.466,112.532z"/> <path style="fill:#6595c3;" d="M49.765,485.1c0,14.856,12.044,26.9,26.9,26.9H256V278.865 C142.282,278.865,49.765,371.382,49.765,485.1z"/> </g>
</svg>