<svg xmlns="http://www.w3.org/2000/svg" width="170" height="87" viewBox="0 0 170 87" fill="none"><path fill-rule="evenodd" clip-rule="evenodd" d="M158.754 37.4855C158.426 37.5054 158.097 37.4546 157.789 37.3366C157.481 37.2185 157.201 37.0357 156.967 36.8002C156.733 36.5647 156.551 36.2817 156.432 35.9697C156.313 35.6577 156.26 35.3237 156.276 34.9895C156.27 34.6032 156.343 34.2198 156.49 33.8634C156.636 33.5069 156.854 33.1852 157.129 32.9182C157.402 32.641 157.728 32.4232 158.086 32.2782C158.445 32.1332 158.829 32.0639 159.215 32.0747C159.899 32.0541 160.564 32.3084 161.065 32.7824C161.296 33.0054 161.478 33.2746 161.602 33.5729C161.725 33.8712 161.786 34.1922 161.781 34.5157C161.789 34.9083 161.717 35.2984 161.571 35.6617C161.424 36.025 161.205 36.3537 160.928 36.6275C160.342 37.1907 159.561 37.496 158.754 37.4768M143.266 38.5774C142.936 38.5908 142.608 38.5374 142.299 38.4204C141.99 38.3033 141.707 38.125 141.467 37.8957C141.233 37.6654 141.051 37.3875 140.931 37.0803C140.811 36.7731 140.756 36.4435 140.771 36.1133C140.761 35.7264 140.832 35.342 140.979 34.985C141.126 34.6281 141.345 34.3067 141.623 34.042C141.899 33.7643 142.227 33.5457 142.588 33.3993C142.949 33.253 143.335 33.1817 143.723 33.1898C144.403 33.1696 145.065 33.4146 145.573 33.8744C145.808 34.1011 145.993 34.3755 146.116 34.6795C146.24 34.9836 146.299 35.3107 146.29 35.6395C146.299 36.0318 146.225 36.4215 146.074 36.7827C145.923 37.1439 145.698 37.4682 145.414 37.7339C145.127 38.0117 144.788 38.2291 144.418 38.3739C144.048 38.5186 143.654 38.5878 143.257 38.5774M136.3 38.5774C135.973 38.5932 135.645 38.5408 135.339 38.4236C135.032 38.3064 134.752 38.1267 134.515 37.8957C134.282 37.6654 134.099 37.3875 133.979 37.0803C133.859 36.7731 133.805 36.4435 133.819 36.1133C133.81 35.7264 133.881 35.342 134.028 34.985C134.175 34.6281 134.394 34.3067 134.672 34.042C134.942 33.7634 135.266 33.5441 135.624 33.3976C135.981 33.251 136.364 33.1803 136.749 33.1898C137.431 33.1705 138.094 33.4152 138.605 33.8744C138.838 34.1022 139.021 34.3768 139.143 34.6808C139.266 34.9847 139.324 35.3112 139.315 35.6395C139.325 36.0297 139.254 36.4176 139.107 36.7783C138.96 37.139 138.741 37.4645 138.463 37.7339C137.878 38.2965 137.097 38.5999 136.292 38.5774M87.9784 70.5828C88.3168 70.5697 88.6545 70.6248 88.972 70.7447C89.2895 70.8647 89.5806 71.0473 89.8285 71.2819C90.0665 71.5004 90.2558 71.7681 90.3837 72.067C90.5116 72.366 90.5752 72.6892 90.5702 73.0152C90.5815 73.4081 90.5089 73.7988 90.3572 74.1603C90.2056 74.5219 89.9787 74.8458 89.6921 75.1096C89.4053 75.3965 89.0643 75.6212 88.6896 75.7701C88.3149 75.9191 87.9144 75.9892 87.5123 75.9762C87.185 75.9952 86.8575 75.9441 86.5509 75.8261C86.2443 75.7082 85.9655 75.526 85.7327 75.2915C85.4998 75.057 85.3181 74.7753 85.1992 74.4648C85.0803 74.1542 85.027 73.8218 85.0426 73.4889C85.0348 73.1024 85.1067 72.7184 85.2535 72.3617C85.4003 72.005 85.6189 71.6834 85.8952 71.4176C86.168 71.1408 86.4934 70.9232 86.8515 70.7782C87.2096 70.6332 87.593 70.5638 87.9784 70.5741M81.0127 70.5741C81.3513 70.5603 81.6892 70.6149 82.0068 70.7349C82.3244 70.855 82.6154 71.0379 82.8629 71.2732C83.1008 71.4917 83.2901 71.7594 83.4181 72.0584C83.546 72.3573 83.6096 72.6806 83.6046 73.0065C83.6147 73.4026 83.5416 73.7964 83.3902 74.1615C83.2387 74.5267 83.0125 74.8548 82.7264 75.124C82.1384 75.6874 81.3545 75.9908 80.5467 75.9676C80.2194 75.9861 79.8919 75.9346 79.5854 75.8165C79.2789 75.6984 79.0001 75.5163 78.7671 75.2819C78.5341 75.0476 78.3521 74.7661 78.2327 74.4558C78.1134 74.1455 78.0593 73.8131 78.0742 73.4803C78.0658 73.0936 78.1374 72.7095 78.2843 72.3527C78.4311 71.9959 78.65 71.6744 78.9267 71.409C79.1995 71.1321 79.5249 70.9146 79.883 70.7696C80.2411 70.6245 80.6245 70.5551 81.0099 70.5655" fill="white"></path><path d="M2.8249 40.3078H5.83737L10.6573 49.8785L11.9021 40.3078H15.7046L12.8797 62.0521H9.0772L9.86726 55.9653L5.6498 47.5819L3.76559 62.0521H0L2.8249 40.3078Z" fill="white"></path><path d="M24.2902 40.3078H28.0188L30.8068 62.0521H26.9275L26.5126 57.5744H21.3544L19.7715 62.0521H15.9292L24.2902 40.3078ZM26.2113 54.4342L25.4213 46.0133L22.4088 54.4342H26.2113Z" fill="white"></path><path d="M35.8143 43.8698C36.1156 41.6858 38.1106 39.9265 40.2193 39.9265H45.6446C46.1373 39.91 46.6274 40.0051 47.0795 40.2049C47.5315 40.4046 47.9343 40.704 48.2585 41.0814C48.5827 41.4589 48.8204 41.9048 48.9542 42.3871C49.088 42.8693 49.1146 43.3758 49.0322 43.8698L47.1537 58.493C46.987 59.5698 46.4551 60.5534 45.6501 61.2736C44.8451 61.9937 43.8177 62.405 42.7458 62.4363H42.2201L44.7437 66.4546H40.333L38.2612 62.4363H37.3205C36.8307 62.4425 36.3454 62.3405 35.8981 62.1374C35.4509 61.9344 35.0523 61.635 34.7299 61.2601C34.4076 60.8852 34.1691 60.4436 34.031 59.9659C33.8929 59.4881 33.8585 58.9856 33.9301 58.493L35.8143 43.8698ZM38.912 58.8744H42.0666C42.4152 58.869 42.7497 58.7336 43.0064 58.4939C43.2632 58.2543 43.4243 57.927 43.4592 57.5744L45.116 44.7884C45.1535 44.6294 45.1542 44.4638 45.1181 44.3045C45.082 44.1452 45.01 43.9965 44.9078 43.8703C44.8056 43.744 44.676 43.6436 44.5292 43.5768C44.3824 43.5101 44.2224 43.4788 44.0617 43.4856H40.9014C40.5539 43.5055 40.2235 43.6455 39.9651 43.8825C39.7066 44.1194 39.5356 44.4391 39.4804 44.7884L37.8236 57.5744C37.798 57.7351 37.8071 57.8996 37.8504 58.0564C37.8937 58.2131 37.9701 58.3584 38.0742 58.4822C38.1783 58.6059 38.3077 58.7051 38.4534 58.7728C38.5991 58.8405 38.7575 58.8752 38.9177 58.8744" fill="white"></path><path d="M54.6081 40.3078H58.5244L55.6995 62.0521H51.7832L54.6081 40.3078Z" fill="white"></path><path d="M19.2741 74.8525H20.3626L22.1076 78.3133L22.5566 74.8525H23.9321L22.9118 82.7188H21.5363L21.8205 80.5146L20.2944 77.4813L19.6152 82.7188H18.251L19.2741 74.8525Z" fill="white"></path><path d="M28.3627 82.7188H27.2032L27.1634 82.4299C26.914 82.6881 26.5782 82.8417 26.2227 82.8603H25.839C25.6743 82.8622 25.5111 82.8277 25.3607 82.7591C25.2104 82.6905 25.0765 82.5895 24.9684 82.4631C24.8602 82.3367 24.7804 82.1879 24.7345 82.027C24.6885 81.8662 24.6775 81.6971 24.7023 81.5314L24.7989 80.7688C24.8222 80.5557 24.9034 80.3534 25.0334 80.1845C25.1634 80.0156 25.3371 79.8869 25.535 79.8126L27.3311 79.1337C27.4119 79.0982 27.4814 79.0405 27.5316 78.967C27.5818 78.8934 27.6108 78.8071 27.6153 78.7177L27.6551 78.3306C27.6643 78.2836 27.6632 78.2351 27.6518 78.1886C27.6403 78.1422 27.6189 78.0988 27.589 78.0618C27.5591 78.0247 27.5214 77.9949 27.4788 77.9745C27.4362 77.954 27.3896 77.9434 27.3424 77.9435H26.8536C26.7475 77.9504 26.6463 77.9918 26.565 78.0615C26.4837 78.1311 26.4265 78.2255 26.4018 78.3306L26.3335 78.9402H25.1485L25.2593 78.0966C25.3114 77.731 25.4887 77.3958 25.7601 77.15C26.0315 76.9043 26.3795 76.7638 26.7428 76.7533H27.8057C27.9738 76.7476 28.141 76.7799 28.2953 76.8478C28.4496 76.9157 28.5872 77.0176 28.6981 77.1461C28.809 77.2746 28.8905 77.4265 28.9367 77.5909C28.9829 77.7552 28.9926 77.928 28.9652 78.0966L28.3627 82.7188ZM27.4362 80.0321C27.3815 80.0766 27.3213 80.1135 27.2572 80.1419L26.2511 80.5579C26.1818 80.5899 26.1222 80.6404 26.0787 80.7039C26.0352 80.7675 26.0093 80.8418 26.0039 80.919L25.9499 81.3061C25.9434 81.3539 25.9471 81.4025 25.9605 81.4487C25.9739 81.495 25.9968 81.5378 26.0276 81.5744C26.0585 81.611 26.0967 81.6405 26.1396 81.661C26.1826 81.6814 26.2293 81.6924 26.2767 81.6932H26.7939C26.9158 81.6818 27.0304 81.6292 27.1195 81.5438C27.2086 81.4585 27.2671 81.3453 27.2856 81.2223L27.4362 80.0321Z" fill="white"></path><path d="M32.1368 85.7231L32.5603 82.4125C32.4471 82.5442 32.309 82.6515 32.1542 82.7279C31.9995 82.8043 31.8312 82.8484 31.6594 82.8574H31.1421C30.9784 82.8638 30.8153 82.8331 30.6647 82.7677C30.514 82.7023 30.3794 82.6038 30.2707 82.4792C30.162 82.3546 30.0818 82.207 30.0359 82.0471C29.9901 81.8873 29.9796 81.719 30.0054 81.5546L30.4686 78.088C30.5159 77.7262 30.6888 77.3935 30.9561 77.1498C31.2234 76.9062 31.5676 76.7676 31.9265 76.7591H32.4722C32.6328 76.7621 32.7902 76.8054 32.9305 76.885C33.0708 76.9646 33.1896 77.0781 33.2764 77.2155L33.3844 76.8978H34.5695L33.4327 85.7318L32.1368 85.7231ZM33.0775 78.4664C33.0882 78.4085 33.0864 78.349 33.0724 78.2918C33.0584 78.2346 33.0324 78.1812 32.9963 78.1352C32.9602 78.0891 32.9147 78.0515 32.863 78.0249C32.8113 77.9983 32.7546 77.9834 32.6967 77.9811H32.151C32.0454 77.987 31.9451 78.0304 31.8677 78.1038C31.7903 78.1772 31.7407 78.2759 31.7276 78.3826L31.3468 81.3206C31.3375 81.3695 31.3391 81.4198 31.3512 81.4681C31.3634 81.5163 31.3859 81.5612 31.4171 81.5996C31.4484 81.6379 31.4875 81.6688 31.5319 81.69C31.5762 81.7112 31.6246 81.7221 31.6736 81.7221H32.2192C32.3452 81.7125 32.4641 81.6589 32.5558 81.5705C32.6474 81.4821 32.7062 81.3642 32.7223 81.2368L33.0775 78.4664Z" fill="white"></path><path d="M35.4477 82.7188L36.2122 76.8891H37.5053L36.7436 82.7188H35.4477ZM36.3344 75.9358L36.4708 74.8554H37.7497L37.6133 75.9358H36.3344Z" fill="white"></path><path d="M46.2244 82.7188H45.2013L44.8744 80.113L43.8542 82.7188H42.8311L41.7 74.8525H43.0641L43.8258 80.5984L44.6158 78.4808L44.1384 74.8525H45.0791L45.3121 76.7764L46.0198 74.8525H46.9747L45.5309 78.4808L45.7753 80.5984L48.0375 74.8525H49.3988L46.2244 82.7188Z" fill="white"></path><path d="M52.3289 82.7188H51.1722L51.1296 82.4299C50.8801 82.6881 50.5444 82.8417 50.1889 82.8603H49.8081C49.6433 82.8622 49.4801 82.8277 49.3297 82.7591C49.1794 82.6905 49.0455 82.5895 48.9374 82.4631C48.8293 82.3367 48.7495 82.1879 48.7035 82.027C48.6576 81.8662 48.6466 81.6971 48.6713 81.5314L48.7679 80.7688C48.7913 80.5557 48.8725 80.3534 49.0025 80.1845C49.1325 80.0156 49.3061 79.8869 49.504 79.8126L51.303 79.1337C51.384 79.0985 51.4536 79.0408 51.5039 78.9673C51.5542 78.8937 51.583 78.8072 51.5872 78.7177L51.6298 78.3306C51.6386 78.2835 51.637 78.2349 51.6252 78.1884C51.6134 78.1419 51.5917 78.0987 51.5615 78.0617C51.5314 78.0247 51.4936 77.995 51.4509 77.9746C51.4082 77.9541 51.3615 77.9435 51.3143 77.9435H50.8255C50.7196 77.9501 50.6186 77.9914 50.5377 78.0612C50.4568 78.131 50.4002 78.2255 50.3765 78.3306L50.3083 78.9402H49.1146L49.2226 78.0966C49.2759 77.731 49.4539 77.396 49.7257 77.1504C49.9974 76.9048 50.3455 76.7643 50.709 76.7533H51.769C51.9371 76.7476 52.1043 76.7799 52.2587 76.8478C52.413 76.9157 52.5506 77.0176 52.6615 77.1461C52.7724 77.2746 52.8539 77.4265 52.9001 77.5909C52.9462 77.7552 52.956 77.928 52.9286 78.0966L52.3289 82.7188ZM51.4024 80.0321C51.3485 80.0761 51.2893 80.113 51.2262 80.1419L50.2173 80.5579C50.1479 80.5896 50.0885 80.64 50.0453 80.7037C50.0022 80.7673 49.9772 80.8418 49.9729 80.919L49.9161 81.3061C49.9101 81.354 49.9141 81.4027 49.9278 81.449C49.9416 81.4952 49.9648 81.538 49.9959 81.5745C50.027 81.611 50.0653 81.6405 50.1084 81.6609C50.1514 81.6814 50.1982 81.6924 50.2457 81.6932H50.763C50.8845 81.6816 50.9988 81.6289 51.0874 81.5436C51.176 81.4582 51.2339 81.3451 51.2518 81.2223L51.4024 80.0321Z" fill="white"></path><path d="M56.444 82.7188H55.2192C55.056 82.7228 54.894 82.6898 54.745 82.6222C54.596 82.5545 54.4637 82.4539 54.3578 82.3277C54.2519 82.2015 54.175 82.0528 54.1328 81.8926C54.0905 81.7324 54.084 81.5646 54.1136 81.4015L54.5655 77.958H53.8294L53.9659 76.8775H54.6991L55.0543 75.358H56.1911L55.9865 76.8978H57.0636L56.9272 77.9782H55.8501L55.4408 81.1068C55.4331 81.1555 55.4357 81.2053 55.4485 81.2529C55.4612 81.3005 55.4838 81.3448 55.5148 81.3828C55.5457 81.4208 55.5843 81.4517 55.6279 81.4733C55.6715 81.495 55.7191 81.5069 55.7677 81.5083H56.6003L56.444 82.7188Z" fill="white"></path><path d="M57.9531 78.0648C58.0057 77.7066 58.1806 77.3787 58.4471 77.1383C58.7137 76.898 59.0549 76.7607 59.411 76.7504H60.6643C60.829 76.7443 60.993 76.7755 61.1444 76.8417C61.2958 76.908 61.4308 77.0076 61.5396 77.1334C61.6484 77.2592 61.7283 77.4081 61.7736 77.5692C61.8188 77.7303 61.8282 77.8996 61.8011 78.0648L61.5425 80.087H58.9421L58.7915 81.2628C58.782 81.3125 58.7832 81.3637 58.7951 81.4128C58.807 81.462 58.8293 81.508 58.8604 81.5475C58.8914 81.5871 58.9306 81.6193 58.9751 81.642C59.0197 81.6646 59.0685 81.6772 59.1183 81.6788H59.772C59.8803 81.6705 59.9827 81.6247 60.0618 81.549C60.1409 81.4733 60.1921 81.3722 60.2068 81.2628L60.2636 80.7659H61.4487L61.3521 81.5546C61.2961 81.9128 61.118 82.2396 60.8489 82.4778C60.5797 82.716 60.2367 82.8504 59.88 82.8574H58.6267C58.4638 82.8633 58.3018 82.8322 58.1523 82.7663C58.0028 82.7004 57.8697 82.6015 57.7627 82.4766C57.6557 82.3517 57.5774 82.2042 57.5337 82.0446C57.4899 81.8851 57.4817 81.7177 57.5098 81.5546L57.9531 78.0648ZM60.4626 79.2406L60.5706 78.3422C60.5792 78.2933 60.5773 78.2432 60.565 78.1951C60.5526 78.1471 60.5301 78.1024 60.4989 78.0642C60.4678 78.026 60.4289 77.9951 60.3848 77.9737C60.3407 77.9524 60.2926 77.9411 60.2437 77.9406H59.5901C59.4828 77.946 59.3806 77.989 59.3008 78.0621C59.2211 78.1353 59.1687 78.2342 59.1524 78.3422L59.0444 79.2406H60.4626Z" fill="white"></path><path d="M62.6168 82.7188L63.3813 76.8891H64.5663L64.5919 77.2762C64.7101 77.1382 64.8542 77.0254 65.0157 76.9446C65.1772 76.8637 65.3529 76.8164 65.5326 76.8053H65.9106L65.7458 78.036H64.9841C64.8568 78.046 64.7365 78.0994 64.6427 78.1874C64.5489 78.2755 64.4869 78.3931 64.4669 78.5213L63.9212 82.7188H62.6168Z" fill="white"></path><path fill-rule="evenodd" clip-rule="evenodd" d="M66.7632 34.6833C69.6932 25.8579 73.3252 23.2233 82.9424 14.9497C79.3275 21.2589 72.2425 30.8989 74.9025 39.7936C76.2866 44.4158 79.7964 47.8246 83.7126 47.9112C90.2093 48.0528 94.2278 43.0782 94.3614 36.977C94.6655 23.4631 77.915 19.5718 86.9922 0C91.1613 19.1529 105.368 23.0298 106.462 38.927C106.858 44.4617 105.46 49.9759 102.484 54.6278C99.1558 53.5791 95.9046 52.2994 93.5571 51.6003C87.3048 49.7457 79.3815 49.4394 68.6389 54.8329C65.3422 49.5174 64.2054 42.3965 66.7632 34.6833Z" fill="white"></path><path fill-rule="evenodd" clip-rule="evenodd" d="M96.419 60.9976C92.2917 63.923 87.2201 65.1332 82.2433 64.3805C78.3318 63.7989 74.6923 62.0041 71.8219 59.2412C75.9171 58.233 80.5495 57.5079 84.9574 57.7968C88.1631 58.0164 92.1759 59.5041 96.419 61.0005" fill="white"></path><path fill-rule="evenodd" clip-rule="evenodd" d="M97.6666 60.1021C92.9035 58.4497 88.7372 56.6182 85.162 56.3726C73.4503 55.5724 60.1357 62.0636 59.6213 61.6765C75.0731 50.8145 85.6167 50.699 93.4747 53.0331C95.6744 53.686 98.5646 54.8531 101.674 55.8613C100.529 57.4473 99.1834 58.8731 97.6723 60.1021" fill="white"></path><path fill-rule="evenodd" clip-rule="evenodd" d="M146.355 57.0399C147.071 57.0399 147.568 56.8811 147.83 56.5488C148.091 56.2166 148.225 55.5464 148.225 54.5758L148.02 46.643C146.519 47.014 145.156 47.8234 144.101 48.9714C142.982 50.1674 142.421 51.4192 142.419 52.7269C142.419 54.2378 142.729 55.3269 143.345 55.9971C143.962 56.6673 144.962 57.0313 146.355 57.0313M124.188 56.936V55.3124C124.205 54.4053 124.227 53.7409 124.259 53.3134L124.236 49.5579C124.236 48.8761 124.023 48.3763 123.588 48.0817C123.153 47.787 122.429 47.6772 121.394 47.6772H121.297C122.059 53.426 121.073 56.8637 119.075 59.0881C114.156 64.5769 106.676 63.0603 99.4371 60.677C100.864 59.4318 102.16 58.0396 103.305 56.5228C110.944 58.7559 118.419 59.2008 115.525 47.8563L113.834 47.9055C113.457 47.9244 113.08 47.865 112.725 47.7309C112.371 47.5968 112.047 47.3908 111.774 47.1255C111.518 46.8398 111.32 46.5052 111.192 46.1412C111.065 45.7772 111.009 45.391 111.029 45.0051C111.029 43.9853 111.464 42.9193 112.325 41.81C113.084 42.2925 114.571 42.5409 116.796 42.5409L120.84 42.4918C122.308 42.4783 123.535 42.4706 124.52 42.4687C127.917 42.4687 129.616 44.045 129.616 47.1977V54.232C129.616 55.3558 129.701 56.0924 129.9 56.4391C130.099 56.8493 130.531 57.0486 131.196 57.0486H138.224C137.441 55.7791 137.018 54.3146 137.002 52.8165C137.002 49.5579 138.253 46.8616 140.753 44.7278C143.374 42.5207 146.751 41.5009 150.885 41.6685C152.291 41.6403 153.664 42.1055 154.773 42.9858C154.298 43.7571 154.054 45.2651 154.054 47.5299L154.125 53.8853C154.143 53.9697 154.151 54.0561 154.148 54.1424C154.121 54.896 154.331 55.6387 154.747 56.2628C155.126 56.7771 155.543 57.0419 155.998 57.0573H161.605C162.298 57.0573 162.781 56.8175 163.057 56.3755C163.333 55.9335 163.475 55.2027 163.475 54.1656C163.475 53.8045 163.438 52.1752 163.358 49.269C163.302 46.9579 163.27 45.4731 163.27 44.8289C163.244 44.4464 163.299 44.0627 163.431 43.7037C163.564 43.3448 163.771 43.0191 164.039 42.7488C164.306 42.4786 164.628 42.27 164.982 42.1374C165.336 42.0049 165.713 41.9513 166.089 41.9805C167.501 41.9334 168.885 42.3903 170 43.2718C169.542 44.0431 169.307 45.5684 169.307 47.839L169.378 56.9619C169.378 60.4131 167.827 62.1387 164.725 62.1387H155.816C154.505 62.1387 153.557 61.6842 152.974 60.7752C152.175 61.6823 150.999 62.1387 149.458 62.1387H133.487C129.087 62.1387 124.182 63.222 124.182 56.9619" fill="white"></path><path d="M152.459 75.2453L152.945 74.7485L151.982 73.7692L151.013 74.7485L151.982 75.7336C152.153 75.566 152.312 75.4013 152.459 75.2453Z" fill="white"></path><path d="M147.813 74.5983L148.734 75.5285L149.697 74.5549L148.734 73.5698L147.813 74.5145L146.906 73.5698L145.937 74.5549L146.906 75.5285L147.813 74.5983Z" fill="white"></path><path d="M108.364 77.8973C108.278 77.7087 108.173 77.5297 108.051 77.3629C107.932 77.2007 107.791 77.0559 107.633 76.9324C107.481 76.8085 107.311 76.7109 107.127 76.6435C106.946 76.5757 106.753 76.5434 106.559 76.5482C106.268 76.5525 105.983 76.6395 105.738 76.7995C105.483 76.9605 105.26 77.1693 105.081 77.4149C104.894 77.6705 104.748 77.9541 104.646 78.2555C104.544 78.5537 104.491 78.867 104.49 79.1828C104.489 79.4928 104.557 79.799 104.689 80.0784C104.821 80.3649 105.031 80.6066 105.294 80.7746C105.326 80.7746 105.374 80.8035 105.436 80.8208C105.503 80.8399 105.572 80.8525 105.641 80.8584H107.048C107.297 80.8426 107.54 80.7778 107.764 80.6677C107.951 80.576 108.118 80.4457 108.253 80.285C108.388 80.1244 108.489 79.9369 108.548 79.7346C108.614 79.5293 108.646 79.3148 108.645 79.0991C108.644 78.8939 108.621 78.6895 108.577 78.4895C108.532 78.2844 108.465 78.0848 108.378 77.8944M107.38 79.3128C107.376 79.3668 107.365 79.4201 107.349 79.4717H105.982C105.907 79.451 105.836 79.4147 105.775 79.365C105.714 79.3153 105.663 79.2533 105.627 79.1828C105.552 79.0407 105.514 78.8817 105.516 78.7206C105.517 78.5942 105.536 78.4687 105.573 78.348C105.608 78.2277 105.662 78.1143 105.735 78.0128C105.804 77.9139 105.892 77.8303 105.994 77.7673C106.092 77.7016 106.208 77.6674 106.326 77.6691C106.515 77.6619 106.701 77.7188 106.855 77.8309C106.988 77.9363 107.096 78.0718 107.17 78.2266C107.246 78.3791 107.297 78.543 107.321 78.7119C107.345 78.8581 107.358 79.0058 107.36 79.1539C107.36 79.2088 107.36 79.2637 107.36 79.3186" fill="white"></path><path d="M153.531 77.8742C153.464 77.4575 153.347 77.0509 153.181 76.6638L152.641 77.0451C152.468 77.1664 152.283 77.2935 152.073 77.4206C152.205 77.6598 152.301 77.9179 152.357 78.1862C152.41 78.4203 152.438 78.6595 152.44 78.8997C152.44 78.9964 152.433 79.0929 152.42 79.1886C152.406 79.286 152.387 79.3824 152.363 79.4775H149.635C149.622 79.1093 149.584 78.7425 149.521 78.3797C149.467 78.0534 149.364 77.7376 149.214 77.4437C149.08 77.1835 148.885 76.9611 148.646 76.7967C148.378 76.6267 148.066 76.5421 147.75 76.554C147.528 76.5496 147.307 76.5956 147.104 76.6885C146.901 76.7814 146.721 76.919 146.577 77.0913C146.44 77.2577 146.334 77.4488 146.267 77.6546C146.196 77.8688 146.161 78.0932 146.162 78.3191C146.163 78.5049 146.19 78.6896 146.241 78.8679C146.301 79.0794 146.383 79.2838 146.486 79.4775H137.21C137.147 79.723 137.09 79.9513 137.042 80.165C136.994 80.3788 136.937 80.6128 136.874 80.8641H137.187C137.299 80.8641 137.415 80.8699 137.536 80.8815C137.654 80.8901 137.771 80.9095 137.886 80.9392C137.994 80.968 138.098 81.0107 138.196 81.0663C138.29 81.1203 138.372 81.1954 138.434 81.2859C138.373 81.4993 138.266 81.6964 138.122 81.8637C137.972 82.0399 137.795 82.191 137.599 82.3114C137.396 82.4363 137.178 82.5334 136.951 82.6003C136.726 82.6685 136.492 82.7035 136.257 82.7043C136.087 82.703 135.917 82.6807 135.752 82.6379C135.468 82.5571 135.203 82.4196 134.973 82.2334C134.773 82.0701 134.606 81.869 134.481 81.6412C134.357 81.4118 134.269 81.1643 134.22 80.9075C134.168 80.6381 134.142 80.3643 134.143 80.0899C134.143 79.8104 134.164 79.5313 134.206 79.255C134.245 78.9662 134.294 78.7062 134.351 78.4462C134.271 78.4789 134.183 78.5107 134.086 78.5415C134.005 78.5639 133.931 78.6066 133.87 78.6657C133.761 78.7973 133.674 78.9467 133.614 79.1077C133.532 79.3154 133.461 79.5276 133.401 79.7433C133.342 79.9657 133.29 80.1881 133.254 80.4077C133.222 80.5872 133.201 80.7686 133.191 80.9508C133.216 81.4254 133.332 81.8904 133.532 82.3201C133.709 82.6915 133.954 83.0249 134.254 83.3023C134.539 83.5573 134.87 83.7535 135.229 83.8801C135.581 84.0117 135.953 84.0791 136.329 84.0794C136.727 84.0797 137.123 84.0083 137.497 83.8685C137.878 83.7319 138.228 83.5171 138.525 83.2373C138.822 82.9575 139.059 82.6188 139.222 82.2421C139.408 81.8039 139.498 81.3298 139.486 80.8526H153.494C153.538 80.5772 153.572 80.2969 153.596 80.0119C153.621 79.7269 153.632 79.438 153.63 79.1453C153.63 78.7196 153.597 78.2946 153.531 77.8742ZM148.646 79.2406C148.628 79.3197 148.59 79.3925 148.535 79.4515L148.29 79.5064C148.147 79.5044 148.006 79.4657 147.881 79.3937C147.744 79.318 147.621 79.2204 147.514 79.1048C147.408 78.995 147.319 78.8682 147.253 78.7293C147.188 78.6076 147.153 78.4718 147.151 78.3335C147.15 78.2164 147.186 78.1022 147.253 78.0071C147.331 77.899 147.44 77.8182 147.566 77.776C147.715 77.7014 147.887 77.6869 148.046 77.7355C148.186 77.7869 148.308 77.8781 148.398 77.9984C148.495 78.1289 148.568 78.2755 148.614 78.4317C148.661 78.5872 148.686 78.7487 148.688 78.9113C148.69 79.0207 148.675 79.1297 148.646 79.2348" fill="white"></path><path d="M137.303 85.0356L136.391 85.9745L135.47 85.0356C135.308 85.206 135.149 85.3678 134.993 85.5267L134.507 86.0149L135.47 87L136.391 86.064L137.318 87L138.287 86.0149C138.122 85.8531 137.963 85.6885 137.806 85.5296C137.65 85.3707 137.488 85.206 137.318 85.0356" fill="white"></path><path d="M114.372 82.1843L113.442 83.1203L112.519 82.1843L111.558 83.1579L112.521 84.1372L113.442 83.1983L114.372 84.1372L115.335 83.1579C115.17 82.9932 115.011 82.8314 114.855 82.6696C114.698 82.5079 114.542 82.3461 114.372 82.1785" fill="white"></path><path d="M128.434 74.1476C128.453 75.0142 128.471 75.9127 128.49 76.814C128.51 77.7153 128.53 78.6022 128.55 79.4746H126.041L126.146 73.5958L125.489 73.8674L124.833 74.1563C124.852 75.0306 124.874 75.9194 124.898 76.8227C124.924 77.724 124.944 78.6108 124.964 79.4833H122.9C122.9 79.411 122.9 79.3186 122.915 79.1944C122.929 79.0702 122.915 78.9864 122.915 78.9055C122.916 78.6252 122.889 78.3455 122.835 78.0706C122.786 77.8129 122.69 77.5669 122.551 77.3455C122.406 77.1256 122.211 76.9442 121.982 76.8169C121.709 76.6675 121.406 76.5826 121.096 76.5684C120.847 76.5479 120.598 76.5958 120.374 76.7071C120.138 76.8221 119.925 76.9786 119.743 77.1693C119.364 77.5713 119.101 78.0708 118.981 78.6137L118.757 79.4602H114.252V79.1857C114.253 78.7523 114.22 78.3195 114.153 77.8915C114.085 77.4649 113.967 77.048 113.803 76.6493C113.616 76.7851 113.434 76.9122 113.263 77.0307L112.718 77.4062C112.955 77.8624 113.083 78.3693 113.09 78.8853C113.09 78.9822 113.081 79.0788 113.064 79.1742C113.064 79.2724 113.03 79.3706 113.007 79.4631H110.58L110.669 73.5843L110.023 73.8732C109.819 73.9637 109.6 74.06 109.367 74.162C109.392 75.0287 109.412 75.8953 109.432 76.762L109.492 79.3619V80.8497H119.311L119.635 80.1015L122.261 80.8497H129.624V79.3735L129.724 73.5958L129.076 73.8847L128.431 74.1736M121.854 79.0297C121.854 79.0673 121.854 79.1077 121.854 79.1453C121.854 79.1828 121.854 79.2233 121.854 79.2579C121.854 79.2926 121.854 79.3157 121.854 79.333L120.021 78.8333C120.032 78.695 120.068 78.5598 120.127 78.4346C120.18 78.3176 120.252 78.2103 120.34 78.1168C120.42 78.0281 120.517 77.9556 120.624 77.9031C120.727 77.8527 120.839 77.8261 120.954 77.8251C121.121 77.8203 121.286 77.8601 121.434 77.9406C121.549 78.0045 121.647 78.0969 121.718 78.2093C121.783 78.3183 121.828 78.4389 121.849 78.5646C121.869 78.6859 121.879 78.8086 121.88 78.9315C121.88 78.9575 121.88 78.9922 121.88 79.0297" fill="white"></path></svg>